PathFileType	4	(X/Y/Z)	C:\human.trc
DataRate	CameraRate	NumFrames	NumMarkers	Units	OrigDataRate	OrigDataStartFrame	OrigNumFrames
200.00	200.00	      4	35	mm	200.00	597	      2387
Frame#	Time	HEADF			HEADR			HEADL			RSHO			RELBL			RELBM			RWRISTR			RWRISTU			RMP			LSHO			LELBL			LELBM			LWRISTR			LWRISTU			LMP			RPEL			RHIP			RKNEEO			RANK			RHEEL			RPINKY			RTHUMB			LPEL			LHIP			LKNEEO			LANK			LHEEL			LPINKY			LTHUMB			T1			T7			L5			STERNUP			STERNLOW			SCAP			
		X1	Y1	Z1	X2	Y2	Z2	X3	Y3	Z3	X4	Y4	Z4	X5	Y5	Z5	X6	Y6	Z6	X7	Y7	Z7	X8	Y8	Z8	X9	Y9	Z9	X10	Y10	Z10	X11	Y11	Z11	X12	Y12	Z12	X13	Y13	Z13	X14	Y14	Z14	X15	Y15	Z15	X16	Y16	Z16	X17	Y17	Z17	X18	Y18	Z18	X19	Y19	Z19	X20	Y20	Z20	X21	Y21	Z21	X22	Y22	Z22	X23	Y23	Z23	X24	Y24	Z24	X25	Y25	Z25	X26	Y26	Z26	X27	Y27	Z27	X28	Y28	Z28	X29	Y29	Z29	X30	Y30	Z30	X31	Y31	Z31	X32	Y32	Z32	X33	Y33	Z33	X34	Y34	Z34	X35	Y35	Z35	

597	2.980	-95.11605	56.62602	1360.80872	-174.97652	156.36757	1404.81018	-19.62070	70.22241	1385.92346	-215.35060	258.91846	1250.79224	-293.16898	276.92587	942.24841	-255.18140	334.21707	938.47156	-215.95766	213.16060	734.90674	-264.26932	258.21072	719.44391	-260.24036	205.17230	655.20148	98.26726	279.67416	1293.54236	206.73929	291.45544	1002.80573	164.57254	359.31210	990.88385	153.42307	265.47824	781.48334	212.48131	294.86240	780.51898	206.13718	258.95370	692.09845	-138.52887	383.96545	876.28064	-186.58643	450.55432	853.65521	-170.70781	391.39099	441.90112	-131.84622	434.91913	71.20386	-92.47438	472.38345	66.87690	-183.96906	337.95868	43.65518	-114.13108	278.85208	54.89194	94.35480	389.19824	885.12793	147.46603	468.86890	836.51990	165.56279	391.48096	462.51514	175.44664	392.37027	95.15241				207.07317	288.35144	51.59541	133.03596	246.09967	57.18370	-75.48770	312.32391	1348.12573	-57.23580	443.30643	1224.97949	-27.30954	537.61963	968.04486	-51.23436	253.75417	1207.64563	-38.92812	278.56479	1081.78796	-181.83887	423.53217	1190.11230	
598	2.985	-94.28123	53.65484	1359.68164	-174.19359	154.02681	1403.54846	-18.63321	67.81336	1384.57568	-214.35411	256.84503	1249.84424	-291.96249	274.99417	941.36584	-253.97400	332.43201	937.66162	-215.06258	211.15189	734.02380	-263.32117	256.58231	718.63525	-259.41669	202.96771	654.36877	99.79471	276.80493	1292.19238	206.87721	288.73355	1000.82916	164.72566	356.77246	988.89636	153.01402	263.35995	779.85571	212.14471	292.45145	778.63464	205.39392	256.28046	690.35266	-138.25644	383.77890	876.26520	-185.94527	450.66107	854.00763	-170.65341	391.27902	441.92444	-131.84854	434.91821	71.20222	-92.26506	472.23172	67.05619	-183.97600	337.96512	43.65080	-114.15565	278.84732	54.85155	94.69186	388.15823	884.40002	147.66216	467.63046	835.57855	165.33569	390.32758	461.80408	174.86205	391.77258	94.36510	124.33794	430.95877	59.08481	207.26620	287.86273	51.24446	132.39258	244.36021	56.17232	-74.22125	310.22748	1347.37781	-55.86163	441.47986	1224.50049	-26.21484	536.76801	967.57355	-50.70057	251.94669	1206.51978	-38.13183	276.96729	1080.24658	-180.84535	422.17694	1189.87891	
599	2.990	-93.75533	51.12438	1357.47510	-173.55415	150.81284	1401.73499	-18.18957	65.29817	1382.41711	-213.15472	255.34235	1249.15454	-290.81177	273.01157	940.73566	-252.91898	330.57410	937.17224	-214.10934	209.21227	733.16107	-262.73758	252.77127	717.25964	-258.54965	200.61380	653.53333	100.39944	274.09570	1290.29749	207.02789	285.96930	999.11487	165.23955	354.99185	986.70490	152.44452	260.71353	778.11908	211.54362	289.53659	777.00128	204.75684	253.68950	688.68610	-137.94130	383.43585	876.24487	-185.53902	450.43854	854.24518	-170.77948	391.19397	441.85556	-131.84227	434.91953	71.20035	-92.44357	472.39166	66.89063	-183.98254	337.97028	43.63630	-114.17467	278.79654	54.94473	94.96653	386.95010	883.50079	147.98819	466.46805	834.70892	165.07108	389.14493	461.02521	174.26854	391.48975	93.74130	124.56770	431.05026	59.11294	207.42487	287.74286	51.18642	132.72731	244.59882	55.88074	-72.99394	307.81064	1346.43689	-54.24746	439.46008	1224.14636	-25.03597	536.33392	967.63019	-50.04516	250.20274	1205.03467	-37.63242	275.81802	1079.68970	-179.60008	420.79343	1189.79517	
600	2.995	-92.72898	48.72604	1355.94946	-172.63390	148.36566	1400.37012	-17.51758	63.60987	1380.08179	-212.25749	253.74525	1248.60376	-289.81451	271.82718	939.96454	-251.45967	328.70685	935.95551	-213.20844	207.30284	732.32562	-261.74530	250.33492	716.32562	-257.68839	198.53664	652.79016	101.29871	271.17755	1288.52930	207.25299	283.09561	997.35138	166.48599	352.51004	985.76666	152.06053	258.09692	776.37994	211.16751	286.82983	775.14960	204.07635	250.98590	686.83685	-137.57616	383.28799	876.23407	-185.15204	450.42188	854.43170	-170.66132	391.17740	441.90900	-131.83798	434.92368	71.21643	-92.18985	472.23032	67.06043	-183.98337	337.97632	43.63522	-114.18356	278.89935	54.80379	95.19746	385.99524	882.66052	148.29987	465.25378	833.79681	164.75984	387.74509	460.28641	173.85152	391.70758	93.12433				208.04535	288.06531	50.95141	133.09273	244.60587	55.65813	-71.99644	305.59344	1345.67029	-52.96135	437.90344	1223.86438	-23.84755	535.61499	967.41254	-48.87239	248.51912	1204.26404	-37.33187	274.43225	1078.25769	-178.29257	419.40295	1189.83679	
